{
    "asset" : {
        "generator" : "Khronos glTF Blender I/O v1.8.19",
        "version" : "2.0"
    },
    "scene" : 0,
    "scenes" : [
        {
            "name" : "Scene",
            "nodes" : [
                2
            ]
        }
    ],
    "nodes" : [
        {
            "mesh" : 0,
            "name" : "Object_2"
        },
        {
            "mesh" : 1,
            "name" : "Object_3"
        },
        {
            "children" : [
                0,
                1
            ],
            "name" : "ibanez jem guitar",
            "rotation" : [
                -0.7071068286895752,
                0,
                0,
                0.7071067094802856
            ],
            "scale" : [
                0.0938655361533165,
                0.09386555105447769,
                0.09386555105447769
            ]
        }
    ],
    "materials" : [
        {
            "doubleSided" : true,
            "name" : "lambert4SG",
            "occlusionTexture" : {
                "index" : 0
            },
            "pbrMetallicRoughness" : {}
        },
        {
            "doubleSided" : true,
            "name" : "lambert5SG",
            "occlusionTexture" : {
                "index" : 1
            },
            "pbrMetallicRoughness" : {}
        }
    ],
    "meshes" : [
        {
            "name" : "Object_0",
            "primitives" : [
                {
                    "attributes" : {
                        "POSITION" : 0,
                        "NORMAL" : 1,
                        "TANGENT" : 2,
                        "TEXCOORD_0" : 3
                    },
                    "indices" : 4,
                    "material" : 0
                }
            ]
        },
        {
            "name" : "Object_1",
            "primitives" : [
                {
                    "attributes" : {
                        "POSITION" : 5,
                        "NORMAL" : 6,
                        "TANGENT" : 7,
                        "TEXCOORD_0" : 8
                    },
                    "indices" : 9,
                    "material" : 1
                }
            ]
        }
    ],
    "textures" : [
        {
            "sampler" : 0,
            "source" : 0
        },
        {
            "sampler" : 0,
            "source" : 0
        }
    ],
    "images" : [
        {
            "bufferView" : 5,
            "mimeType" : "image/png",
            "name" : "lambert4SG_occlusion.png"
        }
    ],
    "accessors" : [
        {
            "bufferView" : 0,
            "componentType" : 5126,
            "count" : 2781,
            "max" : [
                5.5694708824157715,
                0.3704969882965088,
                0.02017899975180626
            ],
            "min" : [
                4.578474998474121,
                -0.281235009431839,
                -0.24605600535869598
            ],
            "type" : "VEC3"
        },
        {
            "bufferView" : 1,
            "componentType" : 5126,
            "count" : 2781,
            "type" : "VEC3"
        },
        {
            "bufferView" : 2,
            "componentType" : 5126,
            "count" : 2781,
            "type" : "VEC4"
        },
        {
            "bufferView" : 3,
            "componentType" : 5126,
            "count" : 2781,
            "type" : "VEC2"
        },
        {
            "bufferView" : 4,
            "componentType" : 5123,
            "count" : 6516,
            "type" : "SCALAR"
        },
        {
            "bufferView" : 6,
            "componentType" : 5126,
            "count" : 36756,
            "max" : [
                6.615400791168213,
                1.99127995967865,
                0.15113000571727753
            ],
            "min" : [
                -6.018847942352295,
                -1.992432951927185,
                -1.1126409769058228
            ],
            "type" : "VEC3"
        },
        {
            "bufferView" : 7,
            "componentType" : 5126,
            "count" : 36756,
            "type" : "VEC3"
        },
        {
            "bufferView" : 8,
            "componentType" : 5126,
            "count" : 36756,
            "type" : "VEC4"
        },
        {
            "bufferView" : 9,
            "componentType" : 5126,
            "count" : 36756,
            "type" : "VEC2"
        },
        {
            "bufferView" : 10,
            "componentType" : 5123,
            "count" : 91719,
            "type" : "SCALAR"
        }
    ],
    "bufferViews" : [
        {
            "buffer" : 0,
            "byteLength" : 33372,
            "byteOffset" : 0
        },
        {
            "buffer" : 0,
            "byteLength" : 33372,
            "byteOffset" : 33372
        },
        {
            "buffer" : 0,
            "byteLength" : 44496,
            "byteOffset" : 66744
        },
        {
            "buffer" : 0,
            "byteLength" : 22248,
            "byteOffset" : 111240
        },
        {
            "buffer" : 0,
            "byteLength" : 13032,
            "byteOffset" : 133488
        },
        {
            "buffer" : 0,
            "byteLength" : 90,
            "byteOffset" : 146520
        },
        {
            "buffer" : 0,
            "byteLength" : 441072,
            "byteOffset" : 146612
        },
        {
            "buffer" : 0,
            "byteLength" : 441072,
            "byteOffset" : 587684
        },
        {
            "buffer" : 0,
            "byteLength" : 588096,
            "byteOffset" : 1028756
        },
        {
            "buffer" : 0,
            "byteLength" : 294048,
            "byteOffset" : 1616852
        },
        {
            "buffer" : 0,
            "byteLength" : 183438,
            "byteOffset" : 1910900
        }
    ],
    "samplers" : [
        {
            "magFilter" : 9729,
            "minFilter" : 9987
        }
    ],
    "buffers" : [
        {
            "byteLength" : 2094340,
            "uri" : "data:application/octet-stream;base64,"
        }
    ]
}
