{
  "accessors": [
    {
      "bufferView": 1,
      "componentType": 5126,
      "count": 152,
      "max": [
        4.594099998474121,
        4.675779819488525,
        0.6783199906349182
      ],
      "min": [
        -4.594099998474121,
        -5.506259918212891,
        0.4369800090789795
      ],
      "type": "VEC3"
    },
    {
      "bufferView": 1,
      "byteOffset": 1824,
      "componentType": 5126,
      "count": 152,
      "max": [
        0.9833707213401794,
        1.0,
        0.9999996423721313
      ],
      "min": [
        -0.9833707213401794,
        -1.0,
        -0.9999996423721313
      ],
      "type": "VEC3"
    },
    {
      "bufferView": 0,
      "componentType": 5125,
      "count": 228,
      "type": "SCALAR"
    }
  ],
  "asset": {
    "extras": {
      "author": "Jiří Kuba (https://sketchfab.com/kuba.jirka)",
      "license": "CC-BY-4.0 (http://creativecommons.org/licenses/by/4.0/)",
      "source": "https://sketchfab.com/3d-models/guitar-pick-6fd593bec4e84ca79d99ca224075274a",
      "title": "Guitar Pick"
    },
    "generator": "Sketchfab-12.68.0",
    "version": "2.0"
  },
  "bufferViews": [
    {
      "buffer": 0,
      "byteLength": 912,
      "name": "floatBufferViews",
      "target": 34963
    },
    {
      "buffer": 0,
      "byteLength": 3648,
      "byteOffset": 912,
      "byteStride": 12,
      "name": "floatBufferViews",
      "target": 34962
    }
  ],
  "buffers": [
    {
      "byteLength": 4560,
      "uri": "scene.bin"
    }
  ],
  "materials": [
    {
      "doubleSided": true,
      "name": "GuitarPickMaterial",
      "pbrMetallicRoughness": {
        "baseColorFactor": [
          0.23455063998699188,
          0.0018211620626971126,
          0.005605391692370176,
          1.0
        ],
        "metallicFactor": 0.0,
        "roughnessFactor": 0.10804115853658525
      }
    }
  ],
  "meshes": [
    {
      "name": "GuitarPick_0",
      "primitives": [
        {
          "attributes": {
            "NORMAL": 1,
            "POSITION": 0
          },
          "indices": 2,
          "material": 0,
          "mode": 4
        }
      ]
    }
  ],
  "nodes": [
    {
      "children": [
        1
      ],
      "matrix": [
        1.0,
        0.0,
        0.0,
        0.0,
        0.0,
        2.220446049250313e-16,
        -1.0,
        0.0,
        0.0,
        1.0,
        2.220446049250313e-16,
        0.0,
        0.0,
        0.0,
        0.0,
        1.0
      ],
      "name": "Sketchfab_model"
    },
    {
      "children": [
        2
      ],
      "name": "Root"
    },
    {
      "children": [
        3
      ],
      "name": "GuitarPick"
    },
    {
      "mesh": 0,
      "name": "GuitarPick_0"
    }
  ],
  "scene": 0,
  "scenes": [
    {
      "name": "Sketchfab_Scene",
      "nodes": [
        0
      ]
    }
  ]
}
