{
    "asset" : {
        "generator" : "Khronos glTF Blender I/O v1.8.19",
        "version" : "2.0"
    },
    "scene" : 0,
    "scenes" : [
        {
            "name" : "Scene",
            "nodes" : [
                3
            ]
        }
    ],
    "nodes" : [
        {
            "mesh" : 0,
            "name" : "GuitarPick_0"
        },
        {
            "children" : [
                0
            ],
            "name" : "GuitarPick"
        },
        {
            "children" : [
                1
            ],
            "name" : "Root"
        },
        {
            "children" : [
                2
            ],
            "name" : "Sketchfab_model",
            "rotation" : [
                -0.7071068286895752,
                0,
                0,
                0.7071068286895752
            ]
        }
    ],
    "materials" : [
        {
            "doubleSided" : true,
            "name" : "GuitarPickMaterial",
            "pbrMetallicRoughness" : {
                "baseColorFactor" : [
                    0.23455063998699188,
                    0.0018211620626971126,
                    0.005605391692370176,
                    1
                ],
                "metallicFactor" : 0,
                "roughnessFactor" : 0.10804115980863571
            }
        }
    ],
    "meshes" : [
        {
            "name" : "GuitarPick_0",
            "primitives" : [
                {
                    "attributes" : {
                        "POSITION" : 0,
                        "NORMAL" : 1
                    },
                    "indices" : 2,
                    "material" : 0
                }
            ]
        }
    ],
    "accessors" : [
        {
            "bufferView" : 0,
            "componentType" : 5126,
            "count" : 224,
            "max" : [
                4.594099998474121,
                4.675779819488525,
                0.6783199906349182
            ],
            "min" : [
                -4.594099998474121,
                -5.506259918212891,
                0.4369800090789795
            ],
            "type" : "VEC3"
        },
        {
            "bufferView" : 1,
            "componentType" : 5126,
            "count" : 224,
            "type" : "VEC3"
        },
        {
            "bufferView" : 2,
            "componentType" : 5123,
            "count" : 228,
            "type" : "SCALAR"
        }
    ],
    "bufferViews" : [
        {
            "buffer" : 0,
            "byteLength" : 2688,
            "byteOffset" : 0
        },
        {
            "buffer" : 0,
            "byteLength" : 2688,
            "byteOffset" : 2688
        },
        {
            "buffer" : 0,
            "byteLength" : 456,
            "byteOffset" : 5376
        }
    ],
    "buffers" : [
        {
            "byteLength" : 5832,
            "uri" : "data:application/octet-stream;base64,"
        }
    ]
}
