{
    "asset" : {
        "generator" : "Khronos glTF Blender I/O v1.8.19",
        "version" : "2.0"
    },
    "scene" : 0,
    "scenes" : [
        {
            "name" : "Scene",
            "nodes" : [
                10
            ]
        }
    ],
    "nodes" : [
        {
            "mesh" : 0,
            "name" : "guitar_amp1_amp_black_0"
        },
        {
            "mesh" : 1,
            "name" : "guitar_amp1_copper_0"
        },
        {
            "mesh" : 2,
            "name" : "guitar_amp1_inputs_0"
        },
        {
            "mesh" : 3,
            "name" : "guitar_amp1_knob_white_0"
        },
        {
            "mesh" : 4,
            "name" : "guitar_amp1_knobsblack_0"
        },
        {
            "mesh" : 5,
            "name" : "guitar_amp1_lambert1_0"
        },
        {
            "mesh" : 6,
            "name" : "guitar_amp1_lambert4_0"
        },
        {
            "mesh" : 7,
            "name" : "guitar_amp1_light_0"
        },
        {
            "mesh" : 8,
            "name" : "guitar_amp1_silver_0"
        },
        {
            "mesh" : 9,
            "name" : "guitar_amp1_speaker_0"
        },
        {
            "children" : [
                0,
                1,
                2,
                3,
                4,
                5,
                6,
                7,
                8,
                9
            ],
            "name" : "Amp",
            "rotation" : [
                0,
                0.7182222604751587,
                0,
                0.695813775062561
            ],
            "translation" : [
                1.7280540466308594,
                0,
                3.4579973220825195
            ]
        }
    ],
    "materials" : [
        {
            "doubleSided" : true,
            "name" : "amp_black",
            "pbrMetallicRoughness" : {
                "baseColorFactor" : [
                    0.11111599951982498,
                    0.11111599951982498,
                    0.11111599951982498,
                    1
                ],
                "metallicFactor" : 0,
                "roughnessFactor" : 0.6000000238418579
            }
        },
        {
            "doubleSided" : true,
            "name" : "copper",
            "pbrMetallicRoughness" : {
                "baseColorFactor" : [
                    0.5882350206375122,
                    0.3878929913043976,
                    0.20761199295520782,
                    1
                ],
                "metallicFactor" : 0,
                "roughnessFactor" : 0.6000000238418579
            }
        },
        {
            "doubleSided" : true,
            "emissiveFactor" : [
                0.19658200442790985,
                0.19658200442790985,
                0.19658200442790985
            ],
            "name" : "inputs",
            "pbrMetallicRoughness" : {
                "baseColorFactor" : [
                    0.5205919742584229,
                    0.5205919742584229,
                    0.5205919742584229,
                    1
                ],
                "metallicFactor" : 0,
                "roughnessFactor" : 0.6000000238418579
            }
        },
        {
            "doubleSided" : true,
            "name" : "knob_white",
            "pbrMetallicRoughness" : {
                "baseColorFactor" : [
                    0.9914550185203552,
                    0.9914550185203552,
                    0.9914550185203552,
                    1
                ],
                "metallicFactor" : 0,
                "roughnessFactor" : 0.6000000238418579
            }
        },
        {
            "doubleSided" : true,
            "name" : "knobsblack",
            "pbrMetallicRoughness" : {
                "baseColorFactor" : [
                    0.27350300550460815,
                    0.27350300550460815,
                    0.27350300550460815,
                    1
                ],
                "metallicFactor" : 0,
                "roughnessFactor" : 0.6000000238418579
            }
        },
        {
            "doubleSided" : true,
            "name" : "lambert1",
            "pbrMetallicRoughness" : {
                "baseColorFactor" : [
                    0,
                    0,
                    0,
                    1
                ],
                "metallicFactor" : 0,
                "roughnessFactor" : 0.6000000238418579
            }
        },
        {
            "alphaMode" : "BLEND",
            "doubleSided" : true,
            "name" : "lambert4",
            "pbrMetallicRoughness" : {
                "baseColorFactor" : [
                    1,
                    1,
                    1,
                    0.9700000286102295
                ],
                "baseColorTexture" : {
                    "index" : 0
                },
                "metallicFactor" : 0,
                "roughnessFactor" : 0.5099999904632568
            }
        },
        {
            "doubleSided" : true,
            "name" : "light",
            "pbrMetallicRoughness" : {
                "baseColorFactor" : [
                    0.8627449870109558,
                    0.10149899870157242,
                    0.10149899870157242,
                    1
                ],
                "metallicFactor" : 0,
                "roughnessFactor" : 0.6000000238418579
            }
        },
        {
            "doubleSided" : true,
            "name" : "silver",
            "pbrMetallicRoughness" : {
                "baseColorFactor" : [
                    0.7715420126914978,
                    0.7715420126914978,
                    0.7715420126914978,
                    1
                ],
                "metallicFactor" : 0,
                "roughnessFactor" : 0.6000000238418579
            }
        },
        {
            "doubleSided" : true,
            "name" : "speaker",
            "pbrMetallicRoughness" : {
                "baseColorFactor" : [
                    0.9438160061836243,
                    0.9438160061836243,
                    0.9438160061836243,
                    1
                ],
                "metallicFactor" : 0,
                "roughnessFactor" : 0.6000000238418579
            }
        }
    ],
    "meshes" : [
        {
            "name" : "guitar_amp1_amp_black_0",
            "primitives" : [
                {
                    "attributes" : {
                        "POSITION" : 0,
                        "NORMAL" : 1,
                        "TEXCOORD_0" : 2
                    },
                    "indices" : 3,
                    "material" : 0
                }
            ]
        },
        {
            "name" : "guitar_amp1_copper_0",
            "primitives" : [
                {
                    "attributes" : {
                        "POSITION" : 4,
                        "NORMAL" : 5,
                        "TEXCOORD_0" : 6
                    },
                    "indices" : 7,
                    "material" : 1
                }
            ]
        },
        {
            "name" : "guitar_amp1_inputs_0",
            "primitives" : [
                {
                    "attributes" : {
                        "POSITION" : 8,
                        "NORMAL" : 9,
                        "TEXCOORD_0" : 10
                    },
                    "indices" : 11,
                    "material" : 2
                }
            ]
        },
        {
            "name" : "guitar_amp1_knob_white_0",
            "primitives" : [
                {
                    "attributes" : {
                        "POSITION" : 12,
                        "NORMAL" : 13,
                        "TEXCOORD_0" : 14
                    },
                    "indices" : 15,
                    "material" : 3
                }
            ]
        },
        {
            "name" : "guitar_amp1_knobsblack_0",
            "primitives" : [
                {
                    "attributes" : {
                        "POSITION" : 16,
                        "NORMAL" : 17,
                        "TEXCOORD_0" : 18
                    },
                    "indices" : 19,
                    "material" : 4
                }
            ]
        },
        {
            "name" : "guitar_amp1_lambert1_0",
            "primitives" : [
                {
                    "attributes" : {
                        "POSITION" : 20,
                        "NORMAL" : 21,
                        "TEXCOORD_0" : 22
                    },
                    "indices" : 23,
                    "material" : 5
                }
            ]
        },
        {
            "name" : "guitar_amp1_lambert4_0",
            "primitives" : [
                {
                    "attributes" : {
                        "POSITION" : 24,
                        "NORMAL" : 25,
                        "TEXCOORD_0" : 26
                    },
                    "indices" : 27,
                    "material" : 6
                }
            ]
        },
        {
            "name" : "guitar_amp1_light_0",
            "primitives" : [
                {
                    "attributes" : {
                        "POSITION" : 28,
                        "NORMAL" : 29,
                        "TEXCOORD_0" : 30
                    },
                    "indices" : 31,
                    "material" : 7
                }
            ]
        },
        {
            "name" : "guitar_amp1_silver_0",
            "primitives" : [
                {
                    "attributes" : {
                        "POSITION" : 32,
                        "NORMAL" : 33,
                        "TEXCOORD_0" : 34
                    },
                    "indices" : 35,
                    "material" : 8
                }
            ]
        },
        {
            "name" : "guitar_amp1_speaker_0",
            "primitives" : [
                {
                    "attributes" : {
                        "POSITION" : 36,
                        "NORMAL" : 37,
                        "TEXCOORD_0" : 38
                    },
                    "indices" : 39,
                    "material" : 9
                }
            ]
        }
    ],
    "textures" : [
        {
            "sampler" : 0,
            "source" : 0
        }
    ],
    "images" : [
        {
            "bufferView" : 28,
            "mimeType" : "image/png",
            "name" : "Image_0"
        }
    ],
    "accessors" : [
        {
            "bufferView" : 0,
            "componentType" : 5126,
            "count" : 464,
            "max" : [
                0.05109703540802002,
                6.055900573730469,
                0.03199052810668945
            ],
            "min" : [
                -4.036341190338135,
                -5.4836273193359375e-06,
                -7.045773506164551
            ],
            "type" : "VEC3"
        },
        {
            "bufferView" : 1,
            "componentType" : 5126,
            "count" : 464,
            "type" : "VEC3"
        },
        {
            "bufferView" : 2,
            "componentType" : 5126,
            "count" : 464,
            "type" : "VEC2"
        },
        {
            "bufferView" : 3,
            "componentType" : 5123,
            "count" : 1197,
            "type" : "SCALAR"
        },
        {
            "bufferView" : 4,
            "componentType" : 5126,
            "count" : 2817,
            "max" : [
                -0.6276578903198242,
                4.670220375061035,
                -1.0743191242218018
            ],
            "min" : [
                -2.4597513675689697,
                0.49486708641052246,
                -5.911951541900635
            ],
            "type" : "VEC3"
        },
        {
            "bufferView" : 5,
            "componentType" : 5126,
            "count" : 2817,
            "type" : "VEC3"
        },
        {
            "bufferView" : 6,
            "componentType" : 5126,
            "count" : 2817,
            "type" : "VEC2"
        },
        {
            "bufferView" : 7,
            "componentType" : 5123,
            "count" : 5820,
            "type" : "SCALAR"
        },
        {
            "bufferView" : 8,
            "componentType" : 5126,
            "count" : 2137,
            "max" : [
                -0.16272985935211182,
                5.529581069946289,
                -0.321897029876709
            ],
            "min" : [
                -0.5602635741233826,
                5.11954402923584,
                -6.656538963317871
            ],
            "type" : "VEC3"
        },
        {
            "bufferView" : 9,
            "componentType" : 5126,
            "count" : 2137,
            "type" : "VEC3"
        },
        {
            "bufferView" : 10,
            "componentType" : 5126,
            "count" : 2137,
            "type" : "VEC2"
        },
        {
            "bufferView" : 11,
            "componentType" : 5123,
            "count" : 2946,
            "type" : "SCALAR"
        },
        {
            "bufferView" : 12,
            "componentType" : 5126,
            "count" : 489,
            "max" : [
                -0.2056942880153656,
                5.710636138916016,
                -1.2136051654815674
            ],
            "min" : [
                -4.003760814666748,
                0.41753318905830383,
                -6.3570637702941895
            ],
            "type" : "VEC3"
        },
        {
            "bufferView" : 13,
            "componentType" : 5126,
            "count" : 489,
            "type" : "VEC3"
        },
        {
            "bufferView" : 14,
            "componentType" : 5126,
            "count" : 489,
            "type" : "VEC2"
        },
        {
            "bufferView" : 15,
            "componentType" : 5123,
            "count" : 747,
            "type" : "SCALAR"
        },
        {
            "bufferView" : 16,
            "componentType" : 5126,
            "count" : 2511,
            "max" : [
                -0.1713220179080963,
                6.285353660583496,
                -0.49282267689704895
            ],
            "min" : [
                -2.5682623386383057,
                1.6941025257110596,
                -6.624963283538818
            ],
            "type" : "VEC3"
        },
        {
            "bufferView" : 17,
            "componentType" : 5126,
            "count" : 2511,
            "type" : "VEC3"
        },
        {
            "bufferView" : 18,
            "componentType" : 5126,
            "count" : 2511,
            "type" : "VEC2"
        },
        {
            "bufferView" : 19,
            "componentType" : 5123,
            "count" : 4977,
            "type" : "SCALAR"
        },
        {
            "bufferView" : 20,
            "componentType" : 5126,
            "count" : 58,
            "max" : [
                0.05109679698944092,
                5.702671051025391,
                -0.2821238040924072
            ],
            "min" : [
                -0.7946325540542603,
                0.22214555740356445,
                -6.71456241607666
            ],
            "type" : "VEC3"
        },
        {
            "bufferView" : 21,
            "componentType" : 5126,
            "count" : 58,
            "type" : "VEC3"
        },
        {
            "bufferView" : 22,
            "componentType" : 5126,
            "count" : 58,
            "type" : "VEC2"
        },
        {
            "bufferView" : 23,
            "componentType" : 5123,
            "count" : 60,
            "type" : "SCALAR"
        },
        {
            "bufferView" : 24,
            "componentType" : 5126,
            "count" : 21,
            "max" : [
                -0.20868349075317383,
                5.128806114196777,
                -0.321897029876709
            ],
            "min" : [
                -0.24517595767974854,
                0.26226353645324707,
                -6.6747894287109375
            ],
            "type" : "VEC3"
        },
        {
            "bufferView" : 25,
            "componentType" : 5126,
            "count" : 21,
            "type" : "VEC3"
        },
        {
            "bufferView" : 26,
            "componentType" : 5126,
            "count" : 21,
            "type" : "VEC2"
        },
        {
            "bufferView" : 27,
            "componentType" : 5123,
            "count" : 21,
            "type" : "SCALAR"
        },
        {
            "bufferView" : 29,
            "componentType" : 5126,
            "count" : 439,
            "max" : [
                -0.41177651286125183,
                5.540084362030029,
                -6.3664655685424805
            ],
            "min" : [
                -0.5654712319374084,
                5.386389255523682,
                -6.520160675048828
            ],
            "type" : "VEC3"
        },
        {
            "bufferView" : 30,
            "componentType" : 5126,
            "count" : 439,
            "type" : "VEC3"
        },
        {
            "bufferView" : 31,
            "componentType" : 5126,
            "count" : 439,
            "type" : "VEC2"
        },
        {
            "bufferView" : 32,
            "componentType" : 5123,
            "count" : 2280,
            "type" : "SCALAR"
        },
        {
            "bufferView" : 33,
            "componentType" : 5126,
            "count" : 292,
            "max" : [
                0.08791998773813248,
                6.215269565582275,
                0.07500724494457245
            ],
            "min" : [
                -4.074240684509277,
                -0.03662234544754028,
                -7.08705997467041
            ],
            "type" : "VEC3"
        },
        {
            "bufferView" : 34,
            "componentType" : 5126,
            "count" : 292,
            "type" : "VEC3"
        },
        {
            "bufferView" : 35,
            "componentType" : 5126,
            "count" : 292,
            "type" : "VEC2"
        },
        {
            "bufferView" : 36,
            "componentType" : 5123,
            "count" : 600,
            "type" : "SCALAR"
        },
        {
            "bufferView" : 37,
            "componentType" : 5126,
            "count" : 586,
            "max" : [
                -0.6888985633850098,
                4.194578170776367,
                -1.6686298847198486
            ],
            "min" : [
                -1.7572243213653564,
                0.469923734664917,
                -5.393320083618164
            ],
            "type" : "VEC3"
        },
        {
            "bufferView" : 38,
            "componentType" : 5126,
            "count" : 586,
            "type" : "VEC3"
        },
        {
            "bufferView" : 39,
            "componentType" : 5126,
            "count" : 586,
            "type" : "VEC2"
        },
        {
            "bufferView" : 40,
            "componentType" : 5123,
            "count" : 2640,
            "type" : "SCALAR"
        }
    ],
    "bufferViews" : [
        {
            "buffer" : 0,
            "byteLength" : 5568,
            "byteOffset" : 0
        },
        {
            "buffer" : 0,
            "byteLength" : 5568,
            "byteOffset" : 5568
        },
        {
            "buffer" : 0,
            "byteLength" : 3712,
            "byteOffset" : 11136
        },
        {
            "buffer" : 0,
            "byteLength" : 2394,
            "byteOffset" : 14848
        },
        {
            "buffer" : 0,
            "byteLength" : 33804,
            "byteOffset" : 17244
        },
        {
            "buffer" : 0,
            "byteLength" : 33804,
            "byteOffset" : 51048
        },
        {
            "buffer" : 0,
            "byteLength" : 22536,
            "byteOffset" : 84852
        },
        {
            "buffer" : 0,
            "byteLength" : 11640,
            "byteOffset" : 107388
        },
        {
            "buffer" : 0,
            "byteLength" : 25644,
            "byteOffset" : 119028
        },
        {
            "buffer" : 0,
            "byteLength" : 25644,
            "byteOffset" : 144672
        },
        {
            "buffer" : 0,
            "byteLength" : 17096,
            "byteOffset" : 170316
        },
        {
            "buffer" : 0,
            "byteLength" : 5892,
            "byteOffset" : 187412
        },
        {
            "buffer" : 0,
            "byteLength" : 5868,
            "byteOffset" : 193304
        },
        {
            "buffer" : 0,
            "byteLength" : 5868,
            "byteOffset" : 199172
        },
        {
            "buffer" : 0,
            "byteLength" : 3912,
            "byteOffset" : 205040
        },
        {
            "buffer" : 0,
            "byteLength" : 1494,
            "byteOffset" : 208952
        },
        {
            "buffer" : 0,
            "byteLength" : 30132,
            "byteOffset" : 210448
        },
        {
            "buffer" : 0,
            "byteLength" : 30132,
            "byteOffset" : 240580
        },
        {
            "buffer" : 0,
            "byteLength" : 20088,
            "byteOffset" : 270712
        },
        {
            "buffer" : 0,
            "byteLength" : 9954,
            "byteOffset" : 290800
        },
        {
            "buffer" : 0,
            "byteLength" : 696,
            "byteOffset" : 300756
        },
        {
            "buffer" : 0,
            "byteLength" : 696,
            "byteOffset" : 301452
        },
        {
            "buffer" : 0,
            "byteLength" : 464,
            "byteOffset" : 302148
        },
        {
            "buffer" : 0,
            "byteLength" : 120,
            "byteOffset" : 302612
        },
        {
            "buffer" : 0,
            "byteLength" : 252,
            "byteOffset" : 302732
        },
        {
            "buffer" : 0,
            "byteLength" : 252,
            "byteOffset" : 302984
        },
        {
            "buffer" : 0,
            "byteLength" : 168,
            "byteOffset" : 303236
        },
        {
            "buffer" : 0,
            "byteLength" : 42,
            "byteOffset" : 303404
        },
        {
            "buffer" : 0,
            "byteLength" : 46354,
            "byteOffset" : 303448
        },
        {
            "buffer" : 0,
            "byteLength" : 5268,
            "byteOffset" : 349804
        },
        {
            "buffer" : 0,
            "byteLength" : 5268,
            "byteOffset" : 355072
        },
        {
            "buffer" : 0,
            "byteLength" : 3512,
            "byteOffset" : 360340
        },
        {
            "buffer" : 0,
            "byteLength" : 4560,
            "byteOffset" : 363852
        },
        {
            "buffer" : 0,
            "byteLength" : 3504,
            "byteOffset" : 368412
        },
        {
            "buffer" : 0,
            "byteLength" : 3504,
            "byteOffset" : 371916
        },
        {
            "buffer" : 0,
            "byteLength" : 2336,
            "byteOffset" : 375420
        },
        {
            "buffer" : 0,
            "byteLength" : 1200,
            "byteOffset" : 377756
        },
        {
            "buffer" : 0,
            "byteLength" : 7032,
            "byteOffset" : 378956
        },
        {
            "buffer" : 0,
            "byteLength" : 7032,
            "byteOffset" : 385988
        },
        {
            "buffer" : 0,
            "byteLength" : 4688,
            "byteOffset" : 393020
        },
        {
            "buffer" : 0,
            "byteLength" : 5280,
            "byteOffset" : 397708
        }
    ],
    "samplers" : [
        {
            "magFilter" : 9729,
            "minFilter" : 9987
        }
    ],
    "buffers" : [
        {
            "byteLength" : 402988,
            "uri" : "data:application/octet-stream;base64,"
        }
    ]
}
